<?xml version="1.0" encoding="UTF-8"?>
<svg id="Layer_2" xmlns="http://www.w3.org/2000/svg" viewBox="0 0 2313.37 990.17">
  <defs>
    <style>
      .cls-1, .cls-2 {
        fill-rule: evenodd;
      }

      .cls-1, .cls-3 {
        fill: #f56905;
      }

      .cls-2, .cls-4 {
        fill: #020617;
      }
    </style>
  </defs>
  <g id="Layer_1-2" data-name="Layer_1">
    <path class="cls-1" d="M1935.93,367.44c-73.79,178.02-125.28,396.89-145.53,620.52h15.91c64.13-256.33,279.88-652.34,502.13-879.73,5.31-5.44,6.45-13.37,2.86-20.08-3.58-6.71-10.8-10.17-18.28-8.77C1683.63,193.58-269.96,919.09,63,338.81c-433.12,629.5,1495.26,114.87,1872.92,28.63"/>
    <path class="cls-2" d="M1572.79,23.44C814.02,332.38,180.11,570.46,82.33,464.92c1.06,4.03,2.6,7.82,4.7,11.28,47.44,78.48,341.53,32.15,415.78,19.71,434.25-72.78,811.03-211.36,1225.26-334.93l-118.74-129.34c-9.45-10.29-23.59-13.47-36.54-8.19"/>
    <path class="cls-1" d="M180.68,439.24c23.24,1.56,47.84-.31,61-1.65,40.25-4.1,80.8-12.29,120.14-21.62,52.32-12.4,104.2-27.45,155.5-43.53,262.21-82.2,518.95-184.7,772.85-289.58l-80.43-75.85c-7.63-7.2-18.21-8.97-27.82-4.77L180.68,439.24Z"/>
    <g>
      <path class="cls-4" d="M169.09,940.18h-97.86l-16.19,46.82H3.29l88.35-246.05h57.38l88.35,246.05h-52.1l-16.19-46.82ZM155.71,900.76l-35.55-102.78-35.55,102.78h71.1Z"/>
      <path class="cls-4" d="M319.74,726.52v260.48h-49.28v-260.48h49.28Z"/>
      <path class="cls-4" d="M417.6,726.52v260.48h-49.28v-260.48h49.28Z"/>
      <path class="cls-4" d="M502.08,977.67c-15.02-8.33-26.81-20.12-35.38-35.38-8.57-15.25-12.85-32.85-12.85-52.8s4.4-37.54,13.2-52.8c8.8-15.25,20.82-27.04,36.08-35.38,15.25-8.33,32.26-12.5,51.04-12.5s35.78,4.17,51.04,12.5c15.25,8.33,27.28,20.12,36.08,35.38,8.8,15.26,13.2,32.86,13.2,52.8s-4.52,37.55-13.55,52.8c-9.04,15.26-21.24,27.05-36.61,35.38-15.37,8.33-32.56,12.5-51.57,12.5s-35.67-4.16-50.69-12.5ZM577.93,940.71c7.86-4.34,14.14-10.85,18.83-19.54,4.69-8.68,7.04-19.24,7.04-31.68,0-18.54-4.87-32.79-14.61-42.77-9.74-9.97-21.65-14.96-35.73-14.96s-25.87,4.99-35.38,14.96c-9.5,9.98-14.26,24.23-14.26,42.77s4.63,32.8,13.9,42.77c9.27,9.98,20.94,14.96,35.02,14.96,8.92,0,17.3-2.17,25.17-6.51Z"/>
      <path class="cls-3" d="M958.62,741.3v245.7h-49.28v-159.81l-65.82,159.81h-37.31l-66.18-159.81v159.81h-49.28v-245.7h55.97l78.14,182.69,78.14-182.69h55.62Z"/>
      <path class="cls-3" d="M1187.07,904.28h-142.56c1.17,14.08,6.1,25.11,14.78,33.09,8.68,7.98,19.36,11.97,32.03,11.97,18.3,0,31.33-7.86,39.07-23.58h53.15c-5.63,18.78-16.43,34.2-32.38,46.29-15.96,12.09-35.55,18.13-58.78,18.13-18.78,0-35.61-4.16-50.51-12.5-14.9-8.33-26.52-20.12-34.85-35.38-8.33-15.25-12.5-32.85-12.5-52.8s4.1-37.9,12.32-53.15c8.21-15.25,19.71-26.98,34.5-35.2,14.78-8.21,31.8-12.32,51.04-12.32s35.14,3.99,49.81,11.97c14.66,7.98,26.05,19.3,34.14,33.97,8.1,14.67,12.14,31.5,12.14,50.51,0,7.04-.47,13.38-1.41,19.01ZM1137.44,871.19c-.24-12.67-4.81-22.82-13.73-30.45-8.92-7.62-19.83-11.44-32.74-11.44-12.21,0-22.47,3.7-30.8,11.09-8.33,7.39-13.44,17.66-15.31,30.8h92.58Z"/>
      <path class="cls-3" d="M1223.5,836.34c7.86-15.25,18.59-26.98,32.21-35.2,13.61-8.21,28.74-12.32,45.41-12.32,12.67,0,24.76,2.76,36.26,8.27,11.5,5.52,20.65,12.85,27.46,22v-92.58h49.98v260.48h-49.98v-28.86c-6.1,9.62-14.67,17.37-25.7,23.23-11.03,5.86-23.82,8.8-38.37,8.8-16.43,0-31.45-4.22-45.06-12.67-13.61-8.45-24.35-20.36-32.21-35.73-7.87-15.37-11.79-33.03-11.79-52.98s3.93-37.19,11.79-52.45ZM1358.14,858.69c-4.7-8.56-11.03-15.14-19.01-19.71-7.98-4.58-16.54-6.86-25.7-6.86s-17.6,2.23-25.34,6.69c-7.74,4.46-14.03,10.97-18.83,19.54-4.81,8.57-7.22,18.72-7.22,30.45s2.4,22,7.22,30.8c4.81,8.8,11.14,15.55,19.01,20.24,7.86,4.7,16.25,7.04,25.17,7.04s17.72-2.29,25.7-6.86c7.97-4.58,14.31-11.14,19.01-19.71,4.69-8.56,7.04-18.83,7.04-30.8s-2.35-22.23-7.04-30.8Z"/>
      <path class="cls-3" d="M1466.38,760.49c-5.75-5.51-8.62-12.38-8.62-20.59s2.87-15.08,8.62-20.59c5.75-5.51,12.96-8.27,21.65-8.27s15.89,2.76,21.65,8.27c5.75,5.52,8.62,12.38,8.62,20.59s-2.88,15.08-8.62,20.59c-5.75,5.52-12.97,8.27-21.65,8.27s-15.9-2.75-21.65-8.27ZM1512.32,791.99v195.01h-49.28v-195.01h49.28Z"/>
      <path class="cls-3" d="M1560.01,836.34c7.86-15.25,18.54-26.98,32.03-35.2,13.49-8.21,28.57-12.32,45.23-12.32,14.55,0,27.28,2.94,38.19,8.8,10.91,5.87,19.65,13.26,26.22,22.18v-27.81h49.63v195.01h-49.63v-28.51c-6.34,9.15-15.08,16.72-26.22,22.7-11.15,5.98-24,8.98-38.54,8.98-16.43,0-31.39-4.22-44.88-12.67-13.5-8.45-24.17-20.36-32.03-35.73-7.87-15.37-11.79-33.03-11.79-52.98s3.93-37.19,11.79-52.45ZM1694.65,858.69c-4.7-8.56-11.03-15.14-19.01-19.71-7.98-4.58-16.54-6.86-25.7-6.86s-17.6,2.23-25.34,6.69c-7.74,4.46-14.03,10.97-18.83,19.54-4.81,8.57-7.22,18.72-7.22,30.45s2.4,22,7.22,30.8c4.81,8.8,11.14,15.55,19.01,20.24,7.86,4.7,16.25,7.04,25.17,7.04s17.72-2.29,25.7-6.86c7.97-4.58,14.31-11.14,19.01-19.71,4.69-8.56,7.04-18.83,7.04-30.8s-2.35-22.23-7.04-30.8Z"/>
    </g>
  </g>
</svg>